
		<svg xmlns="http://www.w3.org/2000/svg" xmlns:xlink="http://www.w3.org/1999/xlink" version="1.1" width="3225.563909774436" height="1624.0601503759399">
			
			<g transform="scale(11.278195488721805) translate(10, 10)">
				<defs id="SvgjsDefs1012"/><g id="main_text" rel="mainfill" name="main_text" feature="main_text" xmlns:name="mainText_mainfill" groupName="main_text" fill="#000" transform="translate(-1.318069309523533, 70.85643455249732) scale(2.196782095246944)"><path d="M0.6 22.76 q0.08 -0.98 0.9 -1.64 q2.08 1.36 4.02 1.36 q1.18 0 1.87 -0.52 t0.69 -1.36 q0 -1.38 -1.82 -2.16 l-2.36 -1.02 q-2.74 -1.18 -2.74 -3.46 q0 -0.82 0.34 -1.53 t0.94 -1.25 t1.45 -0.82 t1.87 -0.28 q2.1 0 4.16 1.04 q-0.02 0.96 -0.78 1.66 q-1.92 -0.94 -3.42 -0.94 q-1.08 0 -1.74 0.53 t-0.66 1.25 q0 0.74 0.41 1.15 t1.25 0.75 l2.32 1 q1.5 0.64 2.25 1.55 t0.75 2.17 q0 1.8 -1.25 2.91 t-3.79 1.11 t-4.66 -1.5 z M22.86 10.34 l0 8.86 q0 2.44 -1.36 3.75 t-3.7 1.31 q-2.32 0 -3.68 -1.3 t-1.36 -3.76 l0 -8.82 l0.12 -0.12 l0.82 0 q0.64 0 0.91 0.32 t0.27 1.04 l0 7.58 q0 1.64 0.74 2.49 t2.18 0.85 q2.92 0 2.92 -3.34 l0 -8.86 q0.22 -0.04 0.5 -0.06 t0.56 -0.02 q0.3 0 0.58 0.02 t0.5 0.06 z M25.98 23.98 l1.06 -13.64 q0.48 -0.08 1.4 -0.08 t1.38 0.08 l1.9 6.26 q0.52 1.62 0.8 3.18 l0.12 0 q0.14 -0.98 0.78 -3.18 l1.9 -6.26 q0.52 -0.08 1.4 -0.08 t1.4 0.08 l1.06 13.64 q-0.44 0.12 -1.03 0.12 t-1.01 -0.08 l-0.46 -7.32 q-0.12 -1.6 -0.16 -4.06 l-0.12 0 l-2.74 9.28 q-0.64 0.08 -1.1 0.08 t-1.06 -0.08 l-2.74 -9.28 l-0.12 0 q-0.1 3.02 -0.16 4.06 l-0.48 7.32 q-0.4 0.08 -1 0.08 t-1.02 -0.12 z M42.13999999999999 23.98 l1.06 -13.64 q0.48 -0.08 1.4 -0.08 t1.38 0.08 l1.9 6.26 q0.52 1.62 0.8 3.18 l0.12 0 q0.14 -0.98 0.78 -3.18 l1.9 -6.26 q0.52 -0.08 1.4 -0.08 t1.4 0.08 l1.06 13.64 q-0.44 0.12 -1.03 0.12 t-1.01 -0.08 l-0.46 -7.32 q-0.12 -1.6 -0.16 -4.06 l-0.12 0 l-2.74 9.28 q-0.64 0.08 -1.1 0.08 t-1.06 -0.08 l-2.74 -9.28 l-0.12 0 q-0.1 3.02 -0.16 4.06 l-0.48 7.32 q-0.4 0.08 -1 0.08 t-1.02 -0.12 z M58.699999999999996 24 l0 -13.66 q0.4 -0.08 1.05 -0.08 t1.07 0.08 l0 13.66 q-0.42 0.08 -1.07 0.08 t-1.05 -0.08 z M69.86 12.14 l-1.16 -0.02 l0 11.88 q-0.46 0.08 -1.07 0.08 t-1.07 -0.08 l0 -10.4 l0.02 -1.48 l-0.02 0 l-1.14 0.02 l-2.38 0 q-0.08 -0.42 -0.08 -0.9 t0.08 -0.9 l9.2 0 q0.12 0.48 0.12 0.92 q0 0.88 -1.2 0.88 l-1.3 0 z  M82.66 22.16 l3.98 0 q0 0.44 -0.06 0.84 q-0.18 1.02 -1.38 1.02 l-5.22 0 q-0.56 0 -0.9 -0.35 t-0.34 -0.97 l0 -12.32 l0.14 -0.12 l0.8 0 q0.66 0 0.93 0.32 t0.27 1.04 l0 10.62 q0.82 -0.08 1.78 -0.08 z M95.75999999999999 20.68 l-1.2 0.02 l-2.74 0 l-1.16 -0.02 l-1.06 3.34 q-0.34 0.08 -0.9 0.08 t-1.06 -0.14 l-0.06 -0.1 l4.52 -13.52 q0.42 -0.08 1.22 -0.08 t1.2 0.08 l4.48 13.52 q-0.42 0.28 -1.08 0.28 t-0.94 -0.24 t-0.48 -0.88 z M91.19999999999999 18.96 l1.02 -0.02 l2 0 q0.82 0.02 1 0.02 l-0.92 -2.9 q-0.7 -2.24 -1.06 -3.62 l-0.1 0 q-0.24 1.1 -0.78 2.9 z M105.75999999999999 24.08 l-4.42 -0.04 l-0.12 -0.16 l0 -13.42 l0.12 -0.14 l4.16 -0.06 q2.18 0 3.27 0.94 t1.09 2.68 q0 0.96 -0.52 1.71 t-1.36 1.09 q0.5 0.16 0.97 0.5 t0.81 0.8 t0.55 1.02 t0.21 1.18 q0 1.76 -1.18 2.83 t-3.58 1.07 z M103.32 22.48 l2.42 -0.02 q0.74 0 1.24 -0.2 t0.8 -0.53 t0.43 -0.76 t0.13 -0.93 q0 -0.44 -0.15 -0.87 t-0.48 -0.77 t-0.85 -0.55 t-1.24 -0.21 l-2.3 0 l0 4.84 z M103.32 11.86 l0 4.14 l2.1 0 q0.64 0 1.08 -0.16 t0.71 -0.44 t0.39 -0.66 t0.12 -0.8 q0 -2.06 -2.26 -2.06 l-1.29 0 t-0.85 -0.02 z M112.09999999999998 22.76 q0.08 -0.98 0.9 -1.64 q2.08 1.36 4.02 1.36 q1.18 0 1.87 -0.52 t0.69 -1.36 q0 -1.38 -1.82 -2.16 l-2.36 -1.02 q-2.74 -1.18 -2.74 -3.46 q0 -0.82 0.34 -1.53 t0.94 -1.25 t1.45 -0.82 t1.87 -0.28 q2.1 0 4.16 1.04 q-0.02 0.96 -0.78 1.66 q-1.92 -0.94 -3.42 -0.94 q-1.08 0 -1.74 0.53 t-0.66 1.25 q0 0.74 0.41 1.15 t1.25 0.75 l2.32 1 q1.5 0.64 2.25 1.55 t0.75 2.17 q0 1.8 -1.25 2.91 t-3.79 1.11 t-4.66 -1.5 z"/></g><g id="SvgjsG1014" rel="mainfill" name="symbol" feature="symbol" xmlns:name="symbol_mainfill" fill="#000" transform="translate(74.08333333333333, -17.541666666666664) scale(1.1833333333333333)"><g xmlns="http://www.w3.org/2000/svg"><polygon fill="none" stroke="#3e97d2" stroke-miterlimit="10" points="5,72.5 35.3,27.5 55,53.5 67,37.5 95,72.5  "/></g></g>
			</g>
		</svg>
	